<?xml version="1.0" standalone="no"?><!DOCTYPE svg PUBLIC "-//W3C//DTD SVG 1.1//EN" "http://www.w3.org/Graphics/SVG/1.1/DTD/svg11.dtd"><svg t="1595165084187" class="icon" viewBox="0 0 1025 1024" version="1.1" xmlns="http://www.w3.org/2000/svg" p-id="891" xmlns:xlink="http://www.w3.org/1999/xlink" width="200.1953125" height="200"><defs><style type="text/css"></style></defs><path d="M512.026875 999.04372" p-id="892"></path><path d="M256.137813 439.775537l234.981537 138.052669 1.240002 1.243752c5.253756 5.253756 12.241265 8.15001 19.667524 8.15001 7.431259 0 14.418768-2.895004 19.672524-8.15001l1.240002-1.243752 234.975287-138.052669c9.395011-10.517513 9.400011-26.518782 0.005-37.036295L532.944401 264.687823l-1.240002-1.245002c-5.258756-5.253756-12.241265-8.14501-19.672524-8.14501-7.431259 0-14.413768 2.891254-19.667524 8.14501l-1.245002 1.245002L256.137813 402.744242c-4.560006 5.097506-7.055009 11.616264-7.055009 18.516273C249.082804 428.154273 251.577807 434.673031 256.137813 439.775537L256.137813 439.775537z" p-id="893"></path><path d="M256.137813 439.775537" p-id="894"></path><path d="M512.026875 0C229.23903 0 0 229.23903 0 512.026875c0 282.744095 229.23903 511.973125 512.026875 511.973125 282.769095 0 512.006875-229.22903 512.006875-511.973125C1024.035 229.23903 794.80597 0 512.026875 0zM786.27596 641.855784l-1.240002 1.245002L549.795671 781.304704c-10.278763 9.623762-23.618779 14.897518-37.763796 14.897518-14.150017 0-27.485034-5.273756-37.768796-14.897518L239.029042 643.100785l-1.245002-1.245002c-7.466259-7.465009-12.520015-16.69877-14.805018-26.747533l28.993785 0c1.093751 2.208753 2.485003 4.272505 4.165005 6.152508l234.981537 138.056419 1.245002 1.240002c5.253756 5.253756 12.236265 8.15001 19.667524 8.15001 7.431259 0 14.413768-2.895004 19.672524-8.15001l1.240002-1.240002 234.975287-138.056419c1.690002-1.895002 3.066254-3.970005 4.145005-6.152508l28.985035 0C798.814725 624.914513 793.902219 634.229524 786.27596 641.855784zM786.27596 551.304423l-1.240002 1.245002L549.795671 690.757093c-10.278763 9.618762-23.618779 14.897518-37.763796 14.897518-14.150017 0-27.485034-5.278756-37.768796-14.897518L239.029042 552.549424l-1.245002-1.245002c-7.466259-7.466259-12.520015-16.69752-14.805018-26.746283l28.993785 0c1.093751 2.206253 2.485003 4.276255 4.165005 6.151258l234.981537 138.057669 1.245002 1.243752c5.253756 5.253756 12.236265 8.14501 19.667524 8.14501 7.431259 0 14.413768-2.895004 19.672524-8.14501l1.240002-1.243752 234.975287-138.052669c1.690002-1.893752 3.066254-3.973755 4.145005-6.156258l28.985035 0C798.814725 534.365652 793.902219 543.681914 786.27596 551.304423zM786.27596 460.371812l-1.240002 1.240002-235.239037 138.212669c-10.278763 9.620012-23.618779 14.897518-37.763796 14.897518-14.150017 0-27.485034-5.277506-37.768796-14.897518L239.029042 461.616813l-1.245002-1.245002c-10.445013-10.445013-16.20127-24.33628-16.20127-39.111298 0-14.780018 5.756257-28.667535 16.20127-39.116298l1.245002-1.245002L474.263079 242.690296c10.283763-9.618762 23.618779-14.892518 37.768796-14.892518 14.145017 0 27.485034 5.273756 37.763796 14.892518l235.239037 138.208919 1.240002 1.245002C807.842236 403.711743 807.842236 438.804286 786.27596 460.371812z" p-id="895"></path></svg>