<?xml version="1.0" standalone="no"?><!DOCTYPE svg PUBLIC "-//W3C//DTD SVG 1.1//EN" "http://www.w3.org/Graphics/SVG/1.1/DTD/svg11.dtd"><svg t="1595164451047" class="icon" viewBox="0 0 1024 1024" version="1.1" xmlns="http://www.w3.org/2000/svg" p-id="772" width="128" height="128" xmlns:xlink="http://www.w3.org/1999/xlink"><defs><style type="text/css"></style></defs><path d="M694.5 177.1h-380c-66 0-120 54-120 120v430c0 66 54 120 120 120h380c66 0 120-54 120-120v-430c0-66-54-120-120-120z m36.6 194.5c-3.8 22.9-22.4 40.3-45.5 42.6-30.6 79.4-105.2 135.6-192.8 135.6-88.6 0-164-57.5-193.9-138.4h0.1c-21.7-7.9-35.4-29.3-33.5-52.3 1.9-23 18.9-41.9 41.6-46.1 22.7-4.2 45.4 7.2 55.5 28 10.1 20.8 5 45.7-12.3 60.9 24.6 57.2 79.3 96.8 142.6 96.8 66.5 0 123.5-43.7 146.1-105.6-13.5-18.8-12.6-44.4 2.1-62.3s39.6-23.7 60.7-14.1c21 9.5 33.1 32.1 29.3 54.9z" p-id="773"></path></svg>