<?xml version="1.0" standalone="no"?><!DOCTYPE svg PUBLIC "-//W3C//DTD SVG 1.1//EN" "http://www.w3.org/Graphics/SVG/1.1/DTD/svg11.dtd"><svg t="1595164711955" class="icon" viewBox="0 0 1024 1024" version="1.1" xmlns="http://www.w3.org/2000/svg" p-id="1091" width="200" height="200" xmlns:xlink="http://www.w3.org/1999/xlink"><defs><style type="text/css"></style></defs><path d="M475.878718 498.22873a73 73 0 1 0 70.779976-127.695712 73 73 0 1 0-70.779976 127.695712Z" p-id="1092"></path><path d="M701.3 180.9h-380c-66 0-120 54-120 120v430c0 66 54 120 120 120h380c66 0 120-54 120-120v-430c0-66-54-120-120-120z m-22.7 533.7c-11.1 0-20.5-8.3-21.9-19.3-9.5-71.7-71-127.3-145.3-127.3-74.4 0-135.9 55.5-145.4 127.3-1.5 11-10.8 19.3-21.9 19.3-13.4 0-23.7-11.8-21.9-25.1 5.2-39.5 22.5-76.2 50.1-105.6 21.6-22.9 48.3-39.9 77.5-49.8-33.4-20.7-55.7-57.6-55.7-99.7 0-64.6 52.6-117.2 117.2-117.2s117.2 52.6 117.2 117.2c0 42-22.2 78.9-55.5 99.6 27.2 9.3 52.2 24.8 73.2 45.7 30.1 30.1 48.9 68.5 54.3 110.1 1.8 13.2-8.6 24.8-21.9 24.8z" p-id="1093"></path></svg>